<?xml version="1.0" encoding="UTF-8" standalone="no"?>
<!-- Created with Inkscape (http://www.inkscape.org/) -->

<svg
   width="9.1933594mm"
   height="9.3691397mm"
   viewBox="0 0 9.1933594 9.3691397"
   version="1.1"
   id="svg1"
   xml:space="preserve"
   inkscape:version="1.3.2 (091e20e, 2023-11-25, custom)"
   sodipodi:docname="drawing.svg"
   xmlns:inkscape="http://www.inkscape.org/namespaces/inkscape"
   xmlns:sodipodi="http://sodipodi.sourceforge.net/DTD/sodipodi-0.dtd"
   xmlns="http://www.w3.org/2000/svg"
   xmlns:svg="http://www.w3.org/2000/svg"><sodipodi:namedview
     id="namedview1"
     pagecolor="#505050"
     bordercolor="#ffffff"
     borderopacity="1"
     inkscape:showpageshadow="0"
     inkscape:pageopacity="0"
     inkscape:pagecheckerboard="1"
     inkscape:deskcolor="#505050"
     inkscape:document-units="mm"
     inkscape:zoom="11.702245"
     inkscape:cx="31.916954"
     inkscape:cy="31.404232"
     inkscape:window-width="1920"
     inkscape:window-height="1017"
     inkscape:window-x="1912"
     inkscape:window-y="-8"
     inkscape:window-maximized="1"
     inkscape:current-layer="layer1" /><defs
     id="defs1" /><g
     inkscape:label="Layer 1"
     inkscape:groupmode="layer"
     id="layer1"
     transform="translate(-19.821712,-11.413484)"><g
       inkscape:label="Layer 1"
       id="layer1-8"
       transform="translate(-21.027981,-27.528039)"><text
         xml:space="preserve"
         style="font-style:normal;font-variant:normal;font-weight:normal;font-stretch:normal;font-size:3.52778px;font-family:'Averia Serif';-inkscape-font-specification:'Averia Serif';fill:#000000;stroke-width:0.264583"
         x="38.345921"
         y="48.475029"
         id="text1"><tspan
           sodipodi:role="line"
           id="tspan1"
           style="font-style:normal;font-variant:normal;font-weight:normal;font-stretch:normal;font-size:3.52778px;font-family:'Averia Serif';-inkscape-font-specification:'Averia Serif';stroke-width:0.264583"
           x="38.345921"
           y="48.475029" /></text><path
         style="font-weight:bold;font-family:'Averia Serif GWF';-inkscape-font-specification:'Averia Serif GWF';baseline-shift:baseline;stroke-width:0.264583"
         d="m 46.410244,42.43375 q 0,-0.498047 -0.591797,-0.498047 h -0.04687 q -0.539062,0 -0.960937,0.609375 -0.416016,0.603516 -0.416016,1.441407 v 0.316406 q 0,0.457031 0.181641,0.732422 0.1875,0.27539 0.474609,0.27539 l 0.04102,-0.0059 q 0.533203,0 0.902343,-0.685547 0.375,-0.691406 0.375,-1.541016 l 0.0293,-0.216796 0.01172,-0.257813 z m 0.304687,-1.02539 q 0.392579,0 0.544922,0.287109 0.152344,0.287109 0.152344,0.580078 0,0.292969 -0.01758,0.779297 l -0.02344,0.65625 q 0,0.615234 0.140625,0.896484 0.146485,0.28125 0.333985,0.28125 0.527344,0 0.83789,-0.574218 0.316407,-0.574219 0.316407,-1.347657 0,-1.394531 -0.84375,-2.232422 -0.890625,-0.902343 -2.408203,-0.902343 -0.726563,0 -1.40625,0.292968 -1.359375,0.585938 -1.962891,1.951172 -0.369141,0.837891 -0.369141,1.658203 0,1.640625 0.919922,2.63086 1.03125,1.113281 2.806641,1.113281 0.708984,0 1.359375,-0.146484 l 0.861328,-0.234375 0.210937,-0.0059 q 0.1875,0 0.1875,0.246094 0,0.251953 -0.960937,0.609375 -0.955078,0.363281 -1.792969,0.363281 h -0.357422 q -0.878906,0 -1.734375,-0.339843 -1.728515,-0.685547 -2.367187,-2.419922 -0.292969,-0.802735 -0.292969,-1.716797 0,-0.919922 0.363281,-1.863281 0.363282,-0.94336 1.060547,-1.623047 1.453125,-1.40625 3.416016,-1.40625 1.96875,0 3.158203,1.054687 1.195312,1.048828 1.195312,2.81836 0,1.347656 -0.791015,2.255859 -0.785156,0.902344 -1.775391,0.902344 -0.222656,0 -0.65625,-0.1875 -0.433594,-0.19336 -0.509765,-0.19336 -0.07031,0 -0.515625,0.216797 -0.439454,0.210938 -0.861329,0.210938 -0.738281,0 -1.154296,-0.47461 -0.416016,-0.480468 -0.416016,-1.49414 0,-0.544922 0.322266,-1.189453 0.585937,-1.177735 1.617187,-1.353516 0.574219,-0.09961 1.412109,-0.09961 z"
         id="text2"
         aria-label="@" /></g></g></svg>
